<svg width="160" height="49" viewBox="0 0 160 49" fill="none" xmlns="http://www.w3.org/2000/svg">
<path d="M105.154 48.5089C108.224 48.4712 111.134 47.3399 113.247 45.3032C115.4 43.2668 116.596 40.5139 116.596 37.6475V11.4368C116.596 8.53309 115.4 5.77978 113.287 3.70574C111.134 1.66903 108.224 0.5 105.154 0.5H77.2864C74.2166 0.537807 71.3061 1.66903 69.1932 3.70574C67.0403 5.77994 65.8442 8.53325 65.8442 11.4368V37.6853C65.884 43.644 70.9872 48.4712 77.2864 48.5089" fill="#343434"/>
<path d="M97.2592 25.9943C96.1826 29.3885 97.9367 32.7826 101.644 31.4252C100.568 33.8765 98.7738 37.5345 98.7738 41.3436C98.7738 41.3436 98.7738 43.9082 100.767 44.5493C100.767 44.5493 103.558 45.1905 102.961 42.8523C102.522 41.3814 102.403 39.873 102.602 38.3645C103.279 35.2341 104.316 32.1794 105.672 29.2379C105.672 29.2379 109.938 20.8276 112.409 16.9056C112.409 16.9056 113.445 14.9069 111.333 14.9069C110.695 14.9069 110.097 15.2085 109.698 15.6986L103.678 25.8434C102.761 27.4275 101.884 27.9179 101.206 27.9179C99.6916 27.9179 100.01 25.6174 100.25 24.7873C100.927 21.9589 102.004 19.244 103.439 16.6413C104.515 14.4163 102.362 14.2279 102.362 14.2279C101.007 13.8884 99.9705 16.0006 99.9705 16.0006L97.5783 20.6014C96.0234 23.166 94.3091 25.6174 92.4753 27.9934C92.4753 27.9934 92.1559 28.3704 91.9171 28.2198C91.6776 28.031 91.797 27.6541 91.797 27.6541C92.196 24.5236 92.8736 21.4311 93.7906 18.3763C93.8305 18.1876 93.8703 18.037 93.8703 17.8484C93.9106 17.4335 93.7906 17.0187 93.5116 16.7167C93.2325 16.3774 92.8342 16.1889 92.3954 16.1889C91.3189 16.0759 90.8005 16.5661 89.8441 17.6596C87.7312 20.1112 85.259 23.8069 84.063 25.4664C83.9436 25.6548 83.7043 25.6172 83.7043 25.3532C83.7043 24.5988 86.4952 16.4527 86.4952 16.4527C86.4952 16.4527 86.8138 15.3215 85.8574 14.9444C85.8574 14.9444 84.3826 14.077 83.1859 15.7739L77.4451 23.166C77.0066 23.7317 76.7675 23.5433 76.7675 23.5433V23.0529L77.6844 18.2257C78.4021 14.5299 77.0466 14.3412 76.1695 14.1904C75.5315 14.1904 74.8539 14.3788 74.2955 14.7185C72.5016 15.548 71.1461 18.9047 71.1461 18.9047C71.1461 18.9047 70.7474 20.1114 71.6244 20.6014C71.9036 20.7522 72.2225 20.8655 72.5414 20.8278C73.8172 20.7523 74.0565 18.5272 74.9735 18.5272C75.133 18.5272 75.133 18.716 75.133 18.7538L72.1827 30.4827C71.9834 31.1613 72.3023 31.8778 72.9005 32.255C73.2992 32.4814 73.7376 32.5191 74.1761 32.4435C74.5749 32.3305 74.9337 32.0665 75.1728 31.7272L76.2491 30.1432C77.8041 27.5408 80.6746 23.8072 80.9537 23.8072C81.0731 23.8072 81.1134 23.8072 81.1134 23.9201L80.0366 30.822C79.9169 31.4253 80.2759 32.0663 80.874 32.3303C81.432 32.5187 82.0302 32.4811 82.5481 32.2171C83.1463 31.7647 83.6647 31.1988 84.0236 30.5577C84.6212 29.6526 87.4919 26.4469 89.2458 23.5053C89.3658 23.3166 89.4852 23.5053 89.4456 23.6186C89.0869 25.1648 88.8071 29.2754 88.7675 30.2936C88.6877 32.2925 90.3222 32.5187 90.3625 32.5187C91.4391 32.5942 92.4755 32.1415 93.0735 31.3121" fill="white"/>
<path d="M11.4638 30.5573H8.27426V23.8067C8.31423 23.0524 8.15452 22.298 7.79598 21.657C7.43711 21.1666 6.7993 20.8649 6.16132 20.9404C5.60311 20.9404 5.08487 21.0537 4.64639 21.3177C4.16779 21.6193 3.76928 22.034 3.49034 22.4867V30.5571H0.300781V18.3008H2.09465L3.29084 19.9599C3.60974 19.6959 3.92865 19.4695 4.24755 19.2435C4.56646 19.0548 4.88537 18.9042 5.24424 18.7531C5.60294 18.6022 5.96198 18.4891 6.32069 18.4138C6.6794 18.3383 7.07824 18.3008 7.47691 18.3008C7.91539 18.3008 8.35386 18.3382 8.75254 18.4514C9.07144 18.5647 9.39035 18.6776 9.70925 18.866C9.94872 19.0548 10.1877 19.2811 10.387 19.5075C10.6263 19.8089 10.7859 20.0729 10.9454 20.3749C11.1845 20.1483 11.4637 19.8845 11.7826 19.6583C12.1015 19.4319 12.4602 19.2055 12.8588 19.0171C13.2177 18.7909 13.6166 18.6022 14.055 18.4514C14.5335 18.3382 15.0118 18.2627 15.53 18.2627C16.1678 18.2627 16.766 18.4138 17.324 18.6776C17.8423 18.9795 18.2809 19.3566 18.56 19.809C18.8789 20.375 19.1181 20.9407 19.2376 21.5817C19.3972 22.2981 19.4769 23.0151 19.4769 23.7692V30.5575H16.2479V23.8068C16.3277 23.0526 16.1681 22.2981 15.7696 21.6572C15.4108 21.1668 14.8126 20.8651 14.1748 20.9406C13.6565 20.9406 13.1381 21.0538 12.6597 21.3178C12.1814 21.6195 11.7428 21.9968 11.4638 22.4869" fill="#343434"/>
<path d="M29.8831 24.9756H27.0526C26.4544 24.938 25.8963 25.0891 25.3779 25.3907C25.059 25.6924 24.8597 26.1073 24.8597 26.5598C24.8597 26.9747 25.0192 27.3518 25.3381 27.6535C25.6968 27.9175 26.1753 28.0681 26.6537 28.0305C27.0124 28.0305 27.3715 27.993 27.7302 27.8797C28.0491 27.8042 28.368 27.691 28.6471 27.5404C28.9262 27.352 29.1653 27.1631 29.3648 26.9747C29.6041 26.7482 29.7635 26.522 29.923 26.2957M29.8831 29.1998C29.4444 29.6144 28.8866 29.9539 28.3282 30.1804C27.5708 30.4445 26.7733 30.5951 25.9759 30.5574C25.4179 30.5951 24.8199 30.4821 24.3015 30.2934C23.823 30.105 23.3846 29.8411 22.9859 29.5016C22.627 29.1244 22.3481 28.7096 22.1487 28.2571C21.9494 27.7668 21.8696 27.2389 21.8696 26.711C21.8696 24.4482 23.7434 22.9772 26.7336 22.9772H29.9229V22.2983C29.9229 21.8458 29.6438 21.4689 29.2453 21.2801C28.6073 21.016 27.8897 20.8652 27.1721 20.9029C26.3748 20.9029 25.5774 21.016 24.8199 21.1669C24.2219 21.3179 23.6237 21.5064 23.0258 21.7329L22.6671 19.2058C22.8665 19.0928 23.1456 19.0174 23.5043 18.9044C23.8232 18.7912 24.222 18.7157 24.5809 18.6024C24.9395 18.527 25.4181 18.4517 25.8963 18.3761C26.3748 18.3009 26.893 18.3009 27.4114 18.3009C28.8866 18.1872 30.4015 18.6402 31.5177 19.5449C32.5144 20.5259 32.9929 21.8455 32.9131 23.1656V30.5572H30.6406L29.8831 29.1998Z" fill="#343434"/>
<path d="M47.8631 18.1122L42.7202 24.2219L48.5809 30.5198H44.5941L39.1721 24.2973V30.5198H36.0225V13.7373H39.1721V24.2973L43.9961 18.1122H47.8631Z" fill="#343434"/>
<path d="M54.9195 21.0157C54.5209 21.0157 54.1224 21.0537 53.7635 21.1667C53.4446 21.2421 53.1257 21.3932 52.8864 21.5816C52.6073 21.7327 52.4079 21.9586 52.2484 22.2227C52.089 22.4868 51.9695 22.7506 51.8897 23.0525H57.5111C57.5111 22.7884 57.4713 22.5244 57.3516 22.2605C57.2718 22.034 57.0725 21.808 56.8731 21.6196C56.634 21.4308 56.3549 21.2801 56.0759 21.1668C55.6771 21.0539 55.2786 20.9783 54.9195 21.0157ZM55.5176 27.9176C55.996 27.9176 56.5142 27.8798 56.9927 27.7665C57.4313 27.6911 57.8698 27.5781 58.2685 27.4272C58.6273 27.3141 58.9861 27.1632 59.3051 26.9748C59.4647 26.8993 59.624 26.7861 59.7836 26.6731L60.3816 29.3505C59.7038 29.69 58.9861 29.9917 58.2287 30.2179C57.3514 30.4444 56.4346 30.5573 55.5176 30.5573C54.521 30.5573 53.5242 30.4066 52.5673 30.1049C51.8099 29.8411 51.0524 29.426 50.4544 28.8604C49.8562 28.3322 49.4177 27.6538 49.1388 26.9371C48.7801 26.1827 48.6205 25.353 48.5806 24.4857C48.5806 23.6936 48.7001 22.9014 48.9794 22.1473C49.2583 21.3932 49.657 20.7519 50.2152 20.1485C50.7335 19.5832 51.4113 19.1301 52.1688 18.8288C53.8829 18.1873 55.8363 18.1873 57.5507 18.8288C58.2685 19.0928 58.8663 19.545 59.3847 20.0729C59.8632 20.6011 60.2219 21.2045 60.4612 21.8456C60.6604 22.5246 60.7803 23.2407 60.7803 23.9578C60.7803 24.1462 60.7803 24.3724 60.7803 24.5985C60.7403 24.825 60.7005 25.0512 60.6604 25.2396H51.8496C51.8895 25.6545 52.0091 26.0317 52.2084 26.3713C52.368 26.7106 52.6471 27.0123 52.966 27.2387C53.2849 27.5025 53.6438 27.6909 54.0822 27.7665C54.5209 27.9176 54.9992 27.9931 55.5174 27.9931V27.9176H55.5176Z" fill="#343434"/>
<path d="M119.705 20.0354L123.931 15.208H124.888V18.2627H128.516V20.9027H124.888V25.9563C124.888 26.2203 124.927 26.522 125.007 26.8237C125.087 27.0124 125.207 27.2009 125.366 27.3893C125.526 27.5026 125.725 27.6159 125.924 27.6537C126.124 27.729 126.323 27.7666 126.562 27.7666C126.921 27.7666 127.28 27.729 127.599 27.616C127.918 27.5782 128.197 27.465 128.476 27.352V30.0294C128.157 30.1805 127.798 30.2934 127.399 30.3689C126.283 30.5951 125.127 30.5573 124.05 30.2556C123.533 30.1048 123.094 29.841 122.695 29.5015C122.376 29.162 122.097 28.7471 121.938 28.2948C121.778 27.8044 121.658 27.2387 121.698 26.7107V20.9782H119.625" fill="#343434"/>
<path d="M133.939 20.8275C134.417 20.0731 135.015 19.4323 135.773 18.9417C136.41 18.4893 137.208 18.2628 138.045 18.3011C138.285 18.2629 138.523 18.2629 138.763 18.3011L139.201 18.3762C139.201 18.3762 139.122 19.0551 138.643 21.167C138.404 21.1297 138.165 21.0915 137.926 21.1297C137.367 21.0915 136.849 21.2048 136.331 21.3935C135.853 21.5819 135.454 21.8836 135.135 22.2609C134.816 22.6379 134.537 23.0906 134.377 23.5807C134.218 24.184 134.138 24.7874 134.138 25.3912V30.5577H130.949V18.3011H132.942" fill="#343434"/>
<path d="M153.513 20.9787C153.154 20.941 152.796 21.0162 152.476 21.1298C152.158 21.2427 151.879 21.3936 151.599 21.582C151.36 21.7331 151.161 21.959 150.961 22.1855C150.802 22.412 150.643 22.6378 150.563 22.9018V26.3717C150.682 26.5979 150.842 26.7863 151.041 26.9751C151.241 27.1635 151.44 27.3144 151.679 27.4651C151.958 27.6162 152.237 27.7292 152.516 27.8046C153.313 27.9932 154.151 27.9555 154.908 27.6912C155.267 27.5028 155.626 27.2766 155.865 26.9749C156.144 26.6732 156.343 26.296 156.463 25.9188C156.582 25.4664 156.662 24.976 156.702 24.4858C156.702 24.0332 156.623 23.5431 156.463 23.0526C156.343 22.6375 156.144 22.2607 155.865 21.9212C155.585 21.6195 155.267 21.3552 154.869 21.2044C154.47 21.0159 154.071 20.9406 153.632 20.9406M154.39 18.3013C155.267 18.2632 156.104 18.4519 156.862 18.7914C157.54 19.1304 158.098 19.5834 158.576 20.1868C159.015 20.7901 159.374 21.4691 159.573 22.1855C159.773 22.9398 159.892 23.7317 159.892 24.4861C159.892 25.2778 159.773 26.0702 159.533 26.8242C159.334 27.5409 158.975 28.1819 158.497 28.7476C158.018 29.3133 157.46 29.766 156.783 30.0677C156.065 30.407 155.227 30.5578 154.43 30.5578C153.633 30.5578 152.876 30.4448 152.158 30.1808C151.559 29.9165 151.001 29.5771 150.563 29.0871V35.4606H147.374V18.3013H149.248L150.483 19.772C150.961 19.3193 151.56 18.942 152.237 18.6406C152.915 18.4141 153.633 18.2632 154.35 18.3013H154.39Z" fill="#343434"/>
<path d="M142.47 13.2846C141.554 13.2846 140.836 13.9635 140.836 14.8307C140.836 15.6979 141.554 16.415 142.47 16.415C143.387 16.415 144.105 15.6981 144.105 14.8307C144.144 14.4158 143.945 14.039 143.626 13.7371C143.347 13.4355 142.909 13.2471 142.47 13.2471M144.025 30.5573H140.836V18.3008H144.025V30.5573Z" fill="#343434"/>
</svg>
