<svg width="141" height="43" viewBox="0 0 141 43" fill="none" xmlns="http://www.w3.org/2000/svg">
<path fill-rule="evenodd" clip-rule="evenodd" d="M52.7193 0.519827C54.7532 0.519827 56.3986 2.00589 56.3986 3.84065C56.3986 5.68228 54.7532 7.16719 52.7193 7.16719C50.6866 7.16719 49.0347 5.68228 49.0347 3.84065C49.0347 2.00589 50.6866 0.519827 52.7193 0.519827ZM49.6413 10.4279H55.8667V31.167H49.6413V10.4279Z" fill="#343434"/>
<path fill-rule="evenodd" clip-rule="evenodd" d="M15.4478 22.1083C14.7102 28.9579 5.56862 28.5691 6.80678 19.5226C7.18845 16.7324 9.07448 14.0998 12.4156 14.9892C15.1366 15.7143 15.8071 18.7648 15.4478 22.1083ZM15.3908 28.2484C16.0644 36.2823 9.56791 37.4892 4.08232 35.4199C3.36367 35.1484 2.69545 34.7102 2.04069 34.4833L2.0384 39.7196C2.61607 40.4805 5.99414 40.9219 7.18931 40.9934C12.6663 41.3163 18.1519 40.0102 20.6133 35.0019C22.2655 31.6485 21.8692 27.3577 21.8692 23.3071C21.8692 18.9862 21.8692 14.6628 21.8692 10.3373L15.4143 10.3408L15.412 12.7891C14.7526 12.3063 14.034 10.4323 10.9235 9.95632C8.76444 9.62564 6.45748 10.1239 4.89696 11.1028C2.02264 12.9107 0.158964 16.2687 0.131169 21.1025C0.104234 25.877 1.83582 29.3947 4.97318 30.9245C6.70133 31.7649 9.19311 32.0161 11.2167 31.4297C14.0409 30.6084 14.7638 28.7702 15.3908 28.2484Z" fill="#343434"/>
<path fill-rule="evenodd" clip-rule="evenodd" d="M109.525 22.0024C109.299 23.5084 108.754 24.8395 107.981 25.6215C107.213 26.4025 105.594 27.0172 104.017 26.6519C100.718 25.8976 100.715 22.1497 100.887 19.5283C101.074 16.7115 103.185 14.2408 106.403 14.9525C109.193 15.5738 109.994 18.8323 109.525 22.0024ZM94.5119 31.2523H100.967V28.8093C101.433 29.0765 102.273 31.1035 105.444 31.6333C107.623 31.9951 110.002 31.5169 111.566 30.5034C114.446 28.6274 116.161 25.3947 116.255 20.5037C116.352 15.8533 114.716 12.0262 111.491 10.5779C108.858 9.39016 105.033 9.62358 102.75 11.5925C102.008 12.2327 101.112 13.4138 100.977 13.4976C100.928 11.5041 101.112 1.2061 100.915 0.324478H94.5678C94.3729 1.16834 94.5119 13.7044 94.5119 15.698C94.5119 20.8847 94.5119 26.0664 94.5119 31.2523Z" fill="#343434"/>
<path fill-rule="evenodd" clip-rule="evenodd" d="M74.7076 22.0022C73.8448 28.1893 67.9503 27.7914 66.4752 24.2838C65.9514 23.0311 65.9726 21.0098 66.0735 19.5169C66.2569 16.6944 68.3959 14.2249 71.6049 14.9558C74.3686 15.5882 75.1666 18.7494 74.7076 22.0022ZM59.6987 31.2521L66.1494 31.2498L66.1563 28.8126C66.6901 29.1759 66.5804 29.5958 67.9807 30.5904C71.9095 33.3772 81.2187 31.8119 81.4402 20.5035C81.5354 15.8531 79.9104 11.9879 76.6183 10.5565C73.519 9.21004 69.214 9.771 67.0302 12.4694C66.8099 12.7423 66.4113 13.3378 66.1606 13.4974L66.1494 0.352318L59.6987 0.324287V31.2521Z" fill="#343434"/>
<path fill-rule="evenodd" clip-rule="evenodd" d="M129.026 26.7497C125.396 26.7497 124.055 24.4781 124.06 20.804C124.061 17.2933 125.525 14.8549 129.026 14.8549C132.809 14.8549 133.517 17.9011 133.517 21.1024C133.517 24.2221 132.229 26.7497 129.026 26.7497ZM117.562 22.4231C118.217 28.8582 123.3 32.4228 130.467 31.6553C136.842 30.9736 140.733 26.2111 140.052 19.1023C138.779 5.8253 115.928 6.40399 117.562 22.4231Z" fill="#343434"/>
<path fill-rule="evenodd" clip-rule="evenodd" d="M30.9901 22.1083C30.1574 14.1142 36.4445 13.9243 38.7603 15.814C41.0269 17.6645 41.5329 25.6694 36.9124 26.6518C35.3387 26.9867 33.4962 26.5657 32.612 25.7555C31.6606 24.8839 31.1615 23.752 30.9901 22.1083ZM34.3389 9.93637C27.7957 10.5877 23.7941 14.9335 24.4051 22.1518C24.9538 28.7076 29.9179 32.3002 36.9964 31.68C43.5599 31.1079 47.4306 26.523 46.9492 19.4063C46.507 12.9657 41.3404 9.2424 34.3389 9.93637Z" fill="#343434"/>
<path d="M106.323 41.1464C106.323 40.7207 106.457 40.362 106.733 40.0559C107.004 39.7518 107.329 39.5999 107.706 39.5999C108.09 39.5999 108.419 39.7518 108.689 40.0559C108.962 40.362 109.099 40.7207 109.099 41.1464C109.099 41.5723 108.962 41.941 108.689 42.2405C108.419 42.5366 108.09 42.6851 107.706 42.6851C107.329 42.6851 107.004 42.5366 106.733 42.2405C106.457 41.941 106.323 41.5723 106.323 41.1464ZM116.767 40.2905V42.1398C115.864 42.5031 115.038 42.6851 114.285 42.6851C112.993 42.6851 111.957 42.3009 111.185 41.5254C110.413 40.7499 110.023 39.7264 110.023 38.4514C110.023 37.2077 110.416 36.1784 111.197 35.3729C111.978 34.5605 112.971 34.1594 114.179 34.1594C114.958 34.1594 115.783 34.3337 116.658 34.6901V36.6032C116.018 36.2399 115.393 36.0566 114.776 36.0566C114.083 36.0566 113.533 36.2711 113.118 36.7013C112.701 37.135 112.494 37.7105 112.494 38.43C112.494 39.1563 112.698 39.7476 113.102 40.1944C113.508 40.6403 114.038 40.8603 114.696 40.8603C115.186 40.8603 115.875 40.6704 116.767 40.2905ZM121.612 34.1594C122.761 34.1594 123.741 34.5336 124.543 35.2857C125.343 36.0423 125.744 37.0892 125.744 38.4334C125.744 39.7876 125.338 40.8326 124.522 41.5723C123.707 42.3163 122.737 42.6851 121.612 42.6851C120.39 42.6851 119.394 42.2917 118.617 41.4996C117.842 40.7073 117.453 39.6792 117.453 38.4165C117.453 37.1304 117.848 36.0958 118.642 35.3203C119.431 34.5448 120.424 34.1594 121.612 34.1594ZM121.616 41.1621C122.718 41.1621 123.273 40.229 123.273 38.3685C123.273 36.5921 122.718 35.7024 121.616 35.7024C121.087 35.7024 120.673 35.935 120.373 36.4053C120.075 36.8724 119.924 37.5461 119.924 38.4245C119.924 40.2504 120.489 41.1621 121.616 41.1621ZM129.16 34.3337V35.3806C129.943 34.5659 130.794 34.1594 131.712 34.1594C132.977 34.1594 133.859 34.7347 134.359 35.8981C135.25 34.7347 136.213 34.1594 137.258 34.1594C138.104 34.1594 138.792 34.4444 139.329 35.0165C139.862 35.5897 140.131 36.3349 140.131 37.2546V42.5097H137.818V37.7105C137.818 37.1304 137.696 36.6825 137.459 36.3595C137.224 36.0365 136.891 35.8778 136.466 35.8778C135.79 35.8778 135.183 36.3426 134.644 37.2646V42.5097H132.331V37.6568C132.331 37.0847 132.206 36.6421 131.945 36.3383C131.693 36.032 131.351 35.8778 130.922 35.8778C130.321 35.8778 129.732 36.2557 129.16 37.0131V42.5097H126.849V34.3337H129.16Z" fill="#343434"/>
<path fill-rule="evenodd" clip-rule="evenodd" d="M87.6288 0.519827C89.6627 0.519827 91.3092 2.00589 91.3092 3.84065C91.3092 5.68228 89.6627 7.16719 87.6288 7.16719C85.5949 7.16719 83.9453 5.68228 83.9453 3.84065C83.9453 2.00589 85.5949 0.519827 87.6288 0.519827ZM84.5531 10.4279H90.7754V31.167H84.5531V10.4279Z" fill="#343434"/>
</svg>
