<svg width="131" height="43" viewBox="0 0 131 43" fill="none" xmlns="http://www.w3.org/2000/svg">
<path d="M7.968 25.6075C6.16939 25.7449 4.43666 26.5058 3.08139 27.6887C0.945835 29.5183 -0.1403 32.4553 0.239167 35.2356C0.643837 38.7611 3.4841 41.8222 6.96318 42.5039C9.4782 43.0363 12.2197 42.3739 14.1906 40.7166C16.0879 39.1504 17.2729 36.7342 17.2671 34.2638C17.3581 31.4371 15.8983 28.6259 13.5498 27.0576C11.9332 25.9385 9.92352 25.4371 7.968 25.6075Z" fill="#343434"/>
<path d="M36.0357 25.6205C32.518 25.9323 29.3949 28.6853 28.6303 32.1278C27.9429 34.9041 28.7657 38.0038 30.7698 40.0502C32.6226 42.0132 35.4452 42.9873 38.1152 42.6021C40.3764 42.3058 42.4966 41.055 43.8383 39.2081C44.9668 37.6804 45.5691 35.7695 45.4936 33.8684C45.4625 31.2758 44.1227 28.7551 42.0298 27.2352C40.3321 25.9516 38.1424 25.3998 36.0357 25.6205Z" fill="#343434"/>
<path d="M64.3028 25.6168C62.4306 25.7949 60.6261 26.6197 59.2768 27.9304C57.3095 29.762 56.324 32.5751 56.6977 35.2332C56.9903 37.6844 58.4307 39.965 60.506 41.2992C62.2253 42.424 64.3629 42.8964 66.3955 42.5924C68.6938 42.2827 70.8409 40.9738 72.1652 39.0688C73.5204 37.1946 74.0276 34.7434 73.5765 32.4782C73.1313 30.0891 71.5862 27.942 69.4857 26.7261C67.9367 25.8026 66.0897 25.4503 64.3028 25.6168Z" fill="#343434"/>
<path d="M92.5668 25.6111C89.3703 25.8744 86.4644 28.132 85.3802 31.1426C84.5611 33.373 84.7025 35.9537 85.806 38.0641C87.0179 40.4707 89.4536 42.2054 92.1217 42.583C94.7061 42.9973 97.4574 42.126 99.3335 40.3021C100.826 38.883 101.763 36.9045 101.93 34.8522C102.152 32.3836 101.24 29.8317 99.471 28.0913C97.7051 26.2636 95.0856 25.3634 92.5668 25.6111Z" fill="#343434"/>
<path d="M120.846 25.6069C119.287 25.7405 117.779 26.333 116.52 27.2564C114.394 28.819 113.064 31.4249 113.088 34.0674C113.051 35.8855 113.641 37.7055 114.714 39.1712C116.096 41.0703 118.286 42.3675 120.625 42.6194C123.234 42.9543 125.966 41.9823 127.781 40.0773C129.614 38.2185 130.489 35.4849 130.098 32.9058C129.784 30.5537 128.418 28.3717 126.45 27.0493C124.824 25.9263 122.809 25.4327 120.846 25.6069Z" fill="#343434"/>
<path d="M49.7466 7.15458C48.5732 7.46427 47.8957 8.63544 47.7097 9.76621C47.4716 11.141 47.6071 12.7226 48.5597 13.8166C49.5219 14.8988 51.3941 14.9046 52.3546 13.8166C53.4174 12.5851 53.4503 10.771 53.0688 9.26661C52.699 7.86485 51.2257 6.70126 49.7466 7.15458ZM54.2769 0.438101C54.8385 0.238934 55.5701 0.275402 55.9789 0.765469C56.3194 1.16998 56.3158 1.73158 56.3194 2.23286C56.3 6.68583 56.3273 11.1391 56.3059 15.592C56.3758 16.6549 55.1115 17.3674 54.211 16.8446C53.5569 16.5057 53.4368 15.7216 53.4503 15.0557C52.5927 16.0604 51.4173 16.8872 50.0622 16.9782C48.6489 17.1505 47.1697 16.6355 46.2053 15.5804C44.9006 14.2018 44.4958 12.2135 44.5578 10.3702C44.612 8.78467 45.065 7.10605 46.2771 6.00445C47.5142 4.81757 49.3982 4.56987 51.0128 4.96484C51.9865 5.19122 52.7571 5.86307 53.4581 6.53491C53.4618 5.03441 53.4483 3.53588 53.4601 2.03538C53.4657 1.42553 53.6576 0.693655 54.2769 0.438101Z" fill="#343434"/>
<path d="M4.65442 11.8409C4.01548 12.0017 3.27792 12.3655 3.14818 13.0819C2.94491 13.9628 3.69025 14.8476 4.55371 14.9522C5.58572 15.1012 6.69893 14.7373 7.41719 13.9765C8.12584 13.1574 8.04651 12.0036 8.122 10.9949C6.98548 11.3551 5.81221 11.564 4.65442 11.8409ZM2.14531 5.61254C3.68641 4.7045 5.55668 4.65429 7.28944 4.82064C8.43946 4.93284 9.7076 5.27957 10.3834 6.29589C11.2371 7.61629 11.0416 9.25817 11.059 10.7528C11.0977 11.9338 10.9331 13.1459 11.2643 14.2997C11.4095 14.9057 11.7154 15.5253 11.5469 16.1584C11.2274 16.7663 10.5014 17.1671 9.81793 16.9502C9.11708 16.6462 8.72598 15.9454 8.2923 15.3549C7.24877 16.1254 6.08911 16.8379 4.76674 16.9542C3.43669 17.1322 1.94774 16.8883 0.979732 15.8893C0.0756081 14.9638 -0.187707 13.4943 0.311748 12.3094C0.759045 11.2813 1.76584 10.5845 2.84222 10.3539C4.58855 9.9648 6.35232 9.64725 8.07358 9.14597C8.0271 8.46234 7.95545 7.64715 7.36109 7.20393C6.51505 6.75875 5.48501 6.81289 4.58275 7.04908C3.77934 7.27182 3.29534 8.00341 2.86743 8.66179C2.4163 9.63575 0.73384 9.25032 0.613854 8.2281C0.501537 7.13801 1.23921 6.14104 2.14531 5.61254Z" fill="#343434"/>
<path d="M19.9393 7.16728C18.7138 7.49829 18.0652 8.77241 17.9451 9.95339C17.8096 11.1924 17.8928 12.6136 18.7602 13.5931C19.5482 14.5225 21.0177 14.7103 22.0477 14.0868C23.0119 13.5351 23.5307 12.4161 23.5908 11.3355C23.6605 10.1916 23.4979 8.95418 22.766 8.02875C22.1134 7.19813 20.9422 6.86516 19.9393 7.16728ZM16.5144 6.04043C17.8076 4.78595 19.8232 4.513 21.4978 5.05496C22.4136 5.34727 23.1319 6.03089 23.732 6.75688C23.7456 6.25138 23.6934 5.68024 24.0457 5.26591C24.4562 4.69871 25.2829 4.68524 25.8792 4.91751C26.5432 5.32595 26.5316 6.19921 26.5859 6.88844C26.6053 9.79266 26.5955 12.6946 26.5917 15.5989C26.5607 17.1439 26.4 18.8632 25.2732 20.0345C24.1677 21.138 22.5259 21.3897 21.0313 21.446C19.4533 21.5021 17.7902 21.26 16.4525 20.3695C15.7729 19.9067 15.1417 19.1536 15.2288 18.2824C15.2947 17.506 16.1814 17.0064 16.8996 17.2388C17.5967 17.4169 17.9083 18.1313 18.3982 18.5883C19.1242 19.3318 20.2568 19.3917 21.2287 19.2756C21.9993 19.1942 22.8453 18.8612 23.1803 18.1061C23.6295 17.0859 23.4997 15.9397 23.554 14.8555C22.762 15.8758 21.5908 16.6792 20.2626 16.7064C18.9151 16.8303 17.4979 16.4276 16.5434 15.4401C15.3179 14.2243 14.8687 12.4374 14.8339 10.7588C14.8048 9.06275 15.2384 7.23881 16.5144 6.04043Z" fill="#343434"/>
<path d="M34.6516 7.18271C33.5363 7.55076 32.9032 8.69471 32.7368 9.80024C32.5256 11.142 32.6283 12.6582 33.4917 13.7654C34.4115 14.9619 36.39 15.055 37.4434 13.9901C38.2546 13.2116 38.5063 12.0385 38.5102 10.9523C38.5161 9.89141 38.3281 8.74324 37.5943 7.92805C36.8916 7.09772 35.6621 6.83431 34.6516 7.18271ZM34.4522 4.8516C36.059 4.65439 37.7918 4.84599 39.1509 5.79078C40.7094 6.82646 41.5305 8.71603 41.5555 10.5515C41.6486 12.2222 41.1799 13.9727 40.0415 15.2292C38.911 16.4605 37.2052 17.0355 35.5597 17.0026C34.0087 17.0278 32.4055 16.5166 31.302 15.3956C30.1577 14.2998 29.6158 12.7005 29.5925 11.1403C29.5325 9.44987 29.9992 7.65118 31.2226 6.42952C32.0726 5.54476 33.2499 5.02608 34.4522 4.8516Z" fill="#343434"/>
<path d="M64.0202 11.8762C63.4142 12.0293 62.7578 12.4066 62.6282 13.0687C62.4268 13.9209 63.0928 14.7764 63.9234 14.9332C65.021 15.1385 66.2332 14.7319 66.965 13.8819C67.6018 13.0785 67.5379 11.9847 67.5536 11.0167C66.3939 11.3785 65.1913 11.5645 64.0202 11.8762ZM61.6175 5.61695C63.2748 4.6371 65.3018 4.64495 67.1566 4.86965C68.4596 5.02057 69.8535 5.71373 70.2331 7.06696C70.8836 9.27015 70.3181 11.6052 70.63 13.851C70.7481 14.5403 71.0906 15.1966 71.0772 15.9072C70.9319 16.7901 69.7394 17.3166 68.9977 16.7977C68.4829 16.4357 68.1401 15.8936 67.7993 15.3806C66.9145 15.9188 66.0646 16.5596 65.0384 16.8075C63.5671 17.1694 61.8285 17.1056 60.636 16.062C59.3736 14.9895 59.1588 12.8945 60.2059 11.6052C60.7521 10.9219 61.5729 10.5075 62.417 10.3255C64.0491 9.96332 65.7064 9.69234 67.3076 9.19862C67.7353 9.16187 67.4837 8.6777 67.4798 8.42411C67.3715 7.85886 67.1179 7.20834 66.5002 7.04956C65.604 6.77858 64.5991 6.81533 63.7318 7.16766C62.8855 7.53739 62.5892 8.47825 61.9757 9.08838C61.2728 9.43089 60.2118 9.07463 60.0977 8.23448C59.9717 7.14634 60.7095 6.13956 61.6175 5.61695Z" fill="#343434"/>
<path d="M87.1441 4.87869C89.0743 4.507 91.2447 4.88458 92.7219 6.24762C93.3163 6.81287 93.8448 7.58542 93.7753 8.44296C93.7113 9.47107 92.1741 10.0268 91.5235 9.19027C90.9737 8.52824 90.5207 7.71894 89.7114 7.33547C88.7548 6.93293 87.5545 7.04906 86.7704 7.76551C85.9496 8.52039 85.6514 9.67641 85.6183 10.7567C85.599 11.8235 85.8063 12.9638 86.5208 13.7964C87.4869 14.9289 89.4152 15.0276 90.4876 13.9939C91.0046 13.5234 91.2699 12.8553 91.7249 12.3366C92.2108 11.7576 93.2583 11.8176 93.6628 12.4662C94.145 13.076 93.9068 13.9338 93.566 14.5552C92.7219 16.0287 91.0164 16.776 89.384 16.9366C87.8024 17.0915 86.0812 16.8883 84.7684 15.9241C83.6631 15.1186 82.9234 13.8581 82.697 12.5147C82.3851 10.778 82.5711 8.89039 83.4771 7.35118C84.2477 6.02685 85.6475 5.13817 87.1441 4.87869Z" fill="#343434"/>
<path d="M102.232 7.19835C101.216 7.54704 100.6 8.56139 100.401 9.5721C100.114 10.9739 100.225 12.5633 101.096 13.7482C102.031 14.9853 104.091 15.059 105.136 13.9244C105.885 13.1285 106.135 12 106.128 10.9371C106.139 9.82766 105.915 8.61581 105.095 7.8082C104.377 7.04939 103.196 6.85387 102.232 7.19835ZM102.037 4.85573C103.514 4.67564 105.09 4.79766 106.4 5.56068C107.82 6.34277 108.774 7.82195 109.055 9.40183C109.363 11.214 109.152 13.2099 108.056 14.7376C107.074 16.1393 105.374 16.9157 103.69 16.9892C102.234 17.0841 100.703 16.7937 99.5196 15.9012C98.3445 15.0628 97.57 13.7308 97.3358 12.3136C97.0048 10.4549 97.2757 8.39112 98.4567 6.86537C99.3165 5.74442 100.65 5.05518 102.037 4.85573Z" fill="#343434"/>
<path d="M113.193 5.31492C113.741 4.53648 115.086 4.62176 115.566 5.43303C115.75 5.75254 115.76 6.13404 115.832 6.48806C116.79 5.33232 118.279 4.63916 119.791 4.80943C120.982 4.84646 122.069 5.52391 122.693 6.5307C123.413 5.76207 124.273 5.05152 125.343 4.87535C126.734 4.63326 128.37 4.90649 129.309 6.05073C129.957 6.8115 130.035 7.85896 130.075 8.81553C130.089 10.8134 130.07 12.8132 130.085 14.8114C130.079 15.3652 130.081 15.977 129.727 16.4377C129.156 17.2063 127.826 17.2025 127.272 16.4203C126.97 16.0138 126.927 15.491 126.929 15.005C126.929 13.1967 126.945 11.3865 126.925 9.57826C126.887 8.8231 126.898 7.90917 126.226 7.40984C125.421 6.89481 124.306 7.23171 123.733 7.94227C123.21 8.54819 123.148 9.38442 123.092 10.1474C123.011 11.9091 123.102 13.675 123.047 15.4368C123.026 15.9653 122.794 16.5094 122.331 16.794C121.471 17.3303 120.132 16.854 120.006 15.7892C119.777 13.4503 120.017 11.0844 119.88 8.73782C119.824 8.14929 119.591 7.44659 118.974 7.24518C118.011 6.98374 116.72 7.30325 116.401 8.35856C115.826 9.99258 116.041 11.7621 115.994 13.462C115.944 14.3468 116.132 15.2741 115.841 16.1299C115.477 17.1057 114.031 17.3012 113.348 16.5635C113.001 16.2054 112.889 15.6924 112.895 15.2102C112.893 12.372 112.902 9.53366 112.891 6.69732C112.897 6.22493 112.891 5.70793 113.193 5.31492Z" fill="#343434"/>
<path d="M76.6464 13.7093C77.8546 13.2969 79.1517 14.5517 78.7627 15.7732C78.5265 17.0626 76.7202 17.3976 75.8761 16.4992C75.0475 15.6435 75.4618 13.994 76.6464 13.7093Z" fill="#343434"/>
<path d="M7.968 25.6075C9.92352 25.4371 11.9332 25.9385 13.5498 27.0576C15.8983 28.6259 17.3581 31.4371 17.2671 34.2638C17.2729 36.7342 16.0879 39.1504 14.1906 40.7166C12.2197 42.3739 9.4782 43.0363 6.96318 42.5039C3.4841 41.8222 0.643837 38.7611 0.239167 35.2356C-0.1403 32.4553 0.945835 29.5183 3.08139 27.6887C4.43666 26.5058 6.16939 25.7449 7.968 25.6075Z" fill="#343434"/>
<path d="M36.0357 25.6205C38.1424 25.3998 40.3321 25.9516 42.0298 27.2352C44.1227 28.7551 45.4625 31.2758 45.4936 33.8684C45.5691 35.7695 44.9668 37.6804 43.8383 39.2081C42.4966 41.055 40.3764 42.3058 38.1152 42.6021C35.4452 42.9873 32.6226 42.0132 30.7698 40.0502C28.7657 38.0038 27.9429 34.9041 28.6303 32.1278C29.3949 28.6853 32.518 25.9323 36.0357 25.6205Z" fill="#343434"/>
<path d="M64.3028 25.6168C66.0897 25.4503 67.9367 25.8026 69.4857 26.7261C71.5862 27.942 73.1313 30.0891 73.5765 32.4782C74.0276 34.7434 73.5204 37.1946 72.1652 39.0688C70.8409 40.9738 68.6938 42.2827 66.3955 42.5924C64.3629 42.8964 62.2253 42.424 60.506 41.2992C58.4307 39.965 56.9903 37.6844 56.6977 35.2332C56.324 32.5751 57.3095 29.762 59.2768 27.9304C60.6261 26.6197 62.4306 25.7949 64.3028 25.6168Z" fill="#343434"/>
<path d="M92.5668 25.6111C95.0856 25.3634 97.7051 26.2636 99.471 28.0913C101.24 29.8317 102.152 32.3836 101.93 34.8522C101.763 36.9045 100.826 38.883 99.3335 40.3021C97.4574 42.126 94.7061 42.9973 92.1217 42.583C89.4536 42.2054 87.0179 40.4707 85.806 38.0641C84.7025 35.9537 84.5611 33.373 85.3802 31.1426C86.4644 28.132 89.3703 25.8744 92.5668 25.6111Z" fill="#343434"/>
<path d="M120.846 25.6069C122.809 25.4327 124.824 25.9263 126.45 27.0493C128.418 28.3717 129.784 30.5537 130.098 32.9058C130.489 35.4849 129.614 38.2185 127.781 40.0773C125.966 41.9823 123.234 42.9543 120.625 42.6194C118.286 42.3675 116.096 41.0703 114.714 39.1712C113.641 37.7055 113.051 35.8855 113.088 34.0674C113.064 31.4249 114.394 28.819 116.52 27.2564C117.779 26.333 119.287 25.7405 120.846 25.6069Z" fill="#343434"/>
</svg>
