<svg width="99" height="43" viewBox="0 0 99 43" fill="none" xmlns="http://www.w3.org/2000/svg">
<path d="M60.7746 30.1295C61.7758 29.9489 62.7606 30.8352 62.9739 32.0826C63.1873 33.3463 62.5636 34.5116 61.5624 34.6922H61.5296C60.4792 34.8891 59.4288 34.9876 58.362 35.004C56.1463 35.004 54.3573 34.4788 52.9623 33.3956C51.1733 32.0333 50.2378 29.8669 50.2378 27.1752V2.16243C50.2378 1.14485 51.2718 0.324219 52.552 0.324219C53.8321 0.324219 54.8661 1.14485 54.8661 2.16243V27.1752C54.8661 28.4061 55.178 29.2596 55.7852 29.7356C56.3268 30.1623 57.6727 30.6875 60.7254 30.1459L60.7746 30.1295Z" fill="#343434"/>
<path d="M13.9994 32.8209C13.1624 32.8209 12.3746 31.5899 11.9643 30.7857C9.81424 26.6005 8.17298 23.2688 6.85998 20.5935C4.18474 15.1281 2.74043 12.5185 1.5259 11.583C0.327787 10.6475 0.0815993 9.44937 0.656038 8.38255C1.2633 7.29932 2.64196 6.90542 3.72518 7.51269C3.7416 7.51269 3.7416 7.5291 3.75801 7.5291C6.33478 8.98982 7.68061 11.7307 11.0288 18.5584C12.3254 21.2008 13.9338 24.4997 16.051 28.6029C16.5762 29.6204 16.9373 31.672 16.0346 32.3449L13.9994 32.8209Z" fill="#343434"/>
<path d="M68.1776 22.9075C68.1776 16.8348 63.2538 11.9111 57.1812 11.9111H47.4486C46.431 11.9111 45.6104 10.8771 45.6104 9.59689C45.6104 8.31671 46.431 7.28271 47.4486 7.28271H57.1812C65.8142 7.28271 72.8059 14.2745 72.8059 22.9075V33.1982C72.8059 34.2158 71.7719 35.0364 70.4918 35.0364C69.2116 35.0364 68.1776 34.2158 68.1776 33.1982V22.9075Z" fill="#343434"/>
<path d="M40.4399 25.8128V26.059C40.4399 28.7014 38.3063 30.4083 34.9417 30.4083C31.5772 30.4083 29.4271 28.7014 29.4271 26.0754C29.4271 23.433 31.5936 21.7261 34.9417 21.7261H35.1387C38.6346 21.7261 44.658 23.3345 45.0683 23.4658V19.0672C42.8362 18.2794 39.2747 17.0977 35.1387 17.0977H34.9417C28.7378 17.0977 24.7988 21.1188 24.7988 26.0754C24.7988 31.032 28.7378 35.0367 34.9417 35.0367C41.1457 35.0367 45.0847 31.032 45.0847 26.0754V25.8456L45.0683 16.2443C45.0683 11.2877 40.2922 7.28302 34.9417 7.28302L34.0555 7.2666C26.9981 7.2666 21.4835 9.17046 17.446 18.4928C17.1177 19.2478 16.8059 20.0028 16.494 20.7577L16.4612 20.8562C15.4929 23.236 14.9348 24.9922 13.5398 28.2091C10.9302 34.2325 8.59961 37.7448 5.03809 37.9417C3.11782 38.0566 2.64185 39.3368 2.87163 40.617C3.10141 41.8971 3.92203 42.6849 5.03809 42.6849C10.8317 42.6849 14.4589 37.3509 17.9219 29.7518L17.9712 29.6534C18.4964 28.4224 19.0052 27.1422 19.5304 25.7964C20.2197 24.0074 20.9418 22.1528 21.7296 20.331C24.8152 13.208 28.3111 11.8949 34.0719 11.8949H34.9581C37.4364 11.8949 40.4564 13.6019 40.4564 16.2279V25.7636" fill="#343434"/>
<path d="M94.2072 25.8125V26.0587C94.2072 28.7011 92.0408 30.408 88.6926 30.408C85.3445 30.408 83.178 28.7011 83.178 26.0751C83.178 23.4327 85.3445 21.7258 88.6926 21.7258H88.8896C92.3854 21.7258 98.4088 23.3342 98.8192 23.4655V19.0669C96.5871 18.2791 93.0091 17.0974 88.8896 17.0974H88.6926C82.4887 17.0974 78.5497 21.1185 78.5497 26.0751C78.5497 31.0317 82.4887 35.0364 88.6926 35.0364C94.8966 35.0364 98.8356 31.0317 98.8356 26.0751V25.8453L98.8192 16.244C98.8192 11.2874 94.0431 7.29913 88.6926 7.29913C88.6926 7.29913 87.035 7.28271 86.6903 7.28271C75.3 7.28271 68.1934 14.7176 68.1934 24.9919H72.8217C72.8217 17.278 77.8603 11.9111 86.6903 11.9111C87.1006 11.9111 88.3808 11.9275 88.3808 11.9275C91.6961 11.9275 94.2236 13.618 94.2236 16.244L94.2072 25.8125Z" fill="#343434"/>
<g opacity="0.7">
<path d="M6.85938 20.6101C8.17238 23.2853 9.81363 26.6335 11.9637 30.8023C12.0293 30.9172 12.095 31.0485 12.177 31.1798C12.6202 30.2771 13.0797 29.2923 13.5393 28.2255C13.9496 27.29 14.2778 26.4858 14.5733 25.7472C13.1618 22.9406 11.9965 20.5772 11.0117 18.5913L6.85938 20.6101Z" fill="#343434"/>
</g>
</svg>
