<svg width="18" height="19" viewBox="0 0 18 19" fill="none" xmlns="http://www.w3.org/2000/svg">
<path d="M9 2C10.375 2 12.0001 3.625 12.0001 5C12.0001 6.375 10.375 8 9 8C7.625 8 6.00012 6.375 6.00012 5C6.00012 3.625 7.625 2 9 2ZM9 13.75C12.375 13.75 16.25 15.3625 16.5 16.25V17.5H1.5V16.2625C1.75 15.3625 5.625 13.75 9 13.75ZM9 0.5C7 0.5 4.5 2.2375 4.5 5C4.5 7.7625 7 9.5 9 9.5C11.6351 9.5 13.5 7 13.5 5C13.5 2.5 11.5 0.5 9 0.5ZM9 12.5C6 12.5 2.5 13 0 16L5.96046e-08 18.6812H9H18L18 15.6812C16 13.6812 12.3375 12.5 9 12.5Z" fill="#0D160B"/>
</svg>
