<svg width="13" height="21" viewBox="0 0 13 21" fill="none" xmlns="http://www.w3.org/2000/svg">
<mask id="path-1-inside-1_159_727" fill="white">
<path d="M0.333443 20.1923V0.756348H6.97656C8.47223 0.756348 9.75909 1.34006 10.8371 2.50748C11.9152 3.6749 12.4542 5.06845 12.4542 6.68811C12.4542 8.30778 11.9152 9.70132 10.8371 10.8687C9.75909 12.0362 8.47223 12.6199 6.97656 12.6199H1.96509V20.1923H0.333443ZM1.96509 10.853H6.97656C8.03421 10.853 8.93963 10.4452 9.69281 9.62954C10.446 8.81392 10.8226 7.83345 10.8226 6.68811C10.8226 5.54278 10.446 4.5623 9.69281 3.74668C8.93963 2.93107 8.03421 2.52326 6.97656 2.52326H1.96509V10.853Z"/>
</mask>
<path d="M0.333443 20.1923H-1.8129V22.3387H0.333443V20.1923ZM0.333443 0.756348V-1.38999H-1.8129V0.756348H0.333443ZM1.96509 12.6199V10.4735H-0.181256V12.6199H1.96509ZM1.96509 20.1923V22.3387H4.11143V20.1923H1.96509ZM1.96509 10.853H-0.181256V12.9993H1.96509V10.853ZM1.96509 2.52326V0.376915H-0.181256V2.52326H1.96509ZM2.47978 20.1923V0.756348H-1.8129V20.1923H2.47978ZM0.333443 2.90269H6.97656V-1.38999H0.333443V2.90269ZM6.97656 2.90269C7.83258 2.90269 8.56004 3.20531 9.26029 3.96361L12.414 1.05135C10.9581 -0.525197 9.11188 -1.38999 6.97656 -1.38999V2.90269ZM9.26029 3.96361C9.96444 4.72614 10.3079 5.59664 10.3079 6.68811H14.6006C14.6006 4.54025 13.8659 2.62367 12.414 1.05135L9.26029 3.96361ZM10.3079 6.68811C10.3079 7.77959 9.96444 8.65009 9.26029 9.41261L12.414 12.3249C13.8659 10.7526 14.6006 8.83597 14.6006 6.68811H10.3079ZM9.26029 9.41261C8.56004 10.1709 7.83258 10.4735 6.97656 10.4735V14.7662C9.11188 14.7662 10.9581 13.9014 12.414 12.3249L9.26029 9.41261ZM6.97656 10.4735H1.96509V14.7662H6.97656V10.4735ZM-0.181256 12.6199V20.1923H4.11143V12.6199H-0.181256ZM1.96509 18.046H0.333443V22.3387H1.96509V18.046ZM1.96509 12.9993H6.97656V8.70663H1.96509V12.9993ZM6.97656 12.9993C8.66584 12.9993 10.1329 12.3166 11.2697 11.0857L8.11596 8.17341C7.74633 8.57367 7.40259 8.70663 6.97656 8.70663V12.9993ZM11.2697 11.0857C12.4016 9.85989 12.9689 8.35429 12.9689 6.68811H8.67623C8.67623 7.31261 8.49037 7.76795 8.11596 8.17341L11.2697 11.0857ZM12.9689 6.68811C12.9689 5.02193 12.4016 3.51633 11.2697 2.29055L8.11596 5.20282C8.49037 5.60827 8.67623 6.06362 8.67623 6.68811H12.9689ZM11.2697 2.29055C10.1329 1.05958 8.66584 0.376915 6.97656 0.376915V4.6696C7.40259 4.6696 7.74633 4.80255 8.11596 5.20282L11.2697 2.29055ZM6.97656 0.376915H1.96509V4.6696H6.97656V0.376915ZM-0.181256 2.52326V10.853H4.11143V2.52326H-0.181256Z" fill="black" mask="url(#path-1-inside-1_159_727)"/>
</svg>
