<svg width="30" height="24" viewBox="0 0 30 24" fill="none" xmlns="http://www.w3.org/2000/svg">
<path d="M7.91163 14.7987L6.1334 12.9001C7.45061 11.4937 8.82898 10.4389 10.2685 9.73576C11.708 9.03258 13.2557 8.68099 14.9117 8.68099C16.5676 8.68099 18.1153 9.03258 19.5548 9.73576C20.9944 10.4389 22.3727 11.4937 23.6899 12.9001L21.9117 14.7987C20.7639 13.5731 19.6066 12.6992 18.4399 12.1768C17.2732 11.6544 16.0972 11.3933 14.9117 11.3933C13.7262 11.3933 12.5501 11.6544 11.3834 12.1768C10.2168 12.6992 9.05949 13.5731 7.91163 14.7987ZM3.14145 9.70563L1.36321 7.80703C3.11322 5.89839 5.1502 4.36143 7.47413 3.19616C9.79807 2.03088 12.2772 1.44824 14.9117 1.44824C17.5461 1.44824 20.0253 2.03088 22.3492 3.19616C24.6731 4.36143 26.7101 5.89839 28.4601 7.80703L26.6819 9.70563C25.026 8.01798 23.2148 6.67189 21.2484 5.66734C19.282 4.6628 17.1697 4.16052 14.9117 4.16052C12.6536 4.16052 10.5414 4.6628 8.57494 5.66734C6.60854 6.67189 4.79737 8.01798 3.14145 9.70563ZM14.9117 22.2725L19.0891 17.7822C18.5434 17.1996 17.9177 16.7425 17.2121 16.411C16.5064 16.0795 15.7396 15.9137 14.9117 15.9137C14.0837 15.9137 13.3169 16.0795 12.6113 16.411C11.9056 16.7425 11.2799 17.1996 10.7342 17.7822L14.9117 22.2725Z" stroke="black" stroke-width="1.25"/>
</svg>
