<svg width="24" height="21" viewBox="0 0 24 21" fill="none" xmlns="http://www.w3.org/2000/svg">
<path d="M1.81056 18.1439V20.1542C1.81056 20.344 1.74007 20.5032 1.59909 20.6316C1.45811 20.7601 1.28342 20.8243 1.07502 20.8243H0.735536C0.527134 20.8243 0.352444 20.7601 0.211466 20.6316C0.0704888 20.5032 0 20.344 0 20.1542V10.3091L2.91949 2.73191C2.99115 2.51885 3.12931 2.35391 3.33396 2.23709C3.53859 2.12025 3.76632 2.06183 4.01716 2.06183H8.71326V0H14.937V2.06183H19.6331C19.8558 2.06183 20.058 2.12325 20.2397 2.2461C20.4213 2.36895 20.5473 2.53089 20.6176 2.73191L23.5371 10.3091V20.1542C23.5371 20.344 23.4666 20.5032 23.3257 20.6316C23.1847 20.7601 23.01 20.8243 22.8016 20.8243H22.4621C22.2537 20.8243 22.079 20.7601 21.938 20.6316C21.7971 20.5032 21.7266 20.344 21.7266 20.1542V18.1439H1.81056ZM2.08212 8.96889H21.455L19.288 3.402H4.24911L2.08212 8.96889ZM5.04224 15.0512C5.49987 15.0512 5.88664 14.9053 6.20255 14.6135C6.51846 14.3216 6.67642 13.9672 6.67642 13.5503C6.67642 13.1334 6.51624 12.7811 6.19589 12.4933C5.87554 12.2055 5.48656 12.0616 5.02893 12.0616C4.5713 12.0616 4.18453 12.2075 3.86862 12.4993C3.55273 12.7912 3.39479 13.1456 3.39479 13.5625C3.39479 13.9794 3.55495 14.3317 3.87528 14.6195C4.19563 14.9073 4.58462 15.0512 5.04224 15.0512ZM18.5082 15.0512C18.9658 15.0512 19.3526 14.9053 19.6685 14.6135C19.9844 14.3216 20.1423 13.9672 20.1423 13.5503C20.1423 13.1334 19.9822 12.7811 19.6619 12.4933C19.3415 12.2055 18.9525 12.0616 18.4949 12.0616C18.0373 12.0616 17.6505 12.2075 17.3346 12.4993C17.0187 12.7912 16.8607 13.1456 16.8607 13.5625C16.8607 13.9794 17.0209 14.3317 17.3412 14.6195C17.6616 14.9073 18.0506 15.0512 18.5082 15.0512ZM1.47107 16.8038H22.0661V10.3091H1.47107V16.8038Z" fill="black"/>
</svg>
