<svg width="31" height="22" viewBox="0 0 31 22" fill="none" xmlns="http://www.w3.org/2000/svg">
<mask id="path-1-inside-1_601_424" fill="white">
<path d="M0.250122 21.6885V20.321H30.2501V21.6885H0.250122ZM1.50012 17.3908C1.50012 13.6466 2.70548 10.4315 5.11619 7.74545C7.52691 5.05941 10.4882 3.48848 14.0001 3.03266V2.05592C14.0001 1.69778 14.1266 1.38034 14.3796 1.10359C14.6326 0.826849 14.9227 0.688477 15.2501 0.688477C15.5775 0.688477 15.8677 0.826849 16.1207 1.10359C16.3736 1.38034 16.5001 1.69778 16.5001 2.05592V3.03266C20.012 3.48848 22.9733 5.05941 25.3841 7.74545C27.7948 10.4315 29.0001 13.6466 29.0001 17.3908H1.50012ZM2.88405 16.0234H27.6162C27.3781 12.8978 26.0537 10.1792 23.643 7.86755C21.2323 5.55592 18.4346 4.4001 15.2501 4.4001C12.0656 4.4001 9.26798 5.55592 6.85726 7.86755C4.44655 10.1792 3.12215 12.8978 2.88405 16.0234Z"/>
</mask>
<path d="M0.250122 21.6885V20.321H30.2501V21.6885H0.250122ZM1.50012 17.3908C1.50012 13.6466 2.70548 10.4315 5.11619 7.74545C7.52691 5.05941 10.4882 3.48848 14.0001 3.03266V2.05592C14.0001 1.69778 14.1266 1.38034 14.3796 1.10359C14.6326 0.826849 14.9227 0.688477 15.2501 0.688477C15.5775 0.688477 15.8677 0.826849 16.1207 1.10359C16.3736 1.38034 16.5001 1.69778 16.5001 2.05592V3.03266C20.012 3.48848 22.9733 5.05941 25.3841 7.74545C27.7948 10.4315 29.0001 13.6466 29.0001 17.3908H1.50012ZM2.88405 16.0234H27.6162C27.3781 12.8978 26.0537 10.1792 23.643 7.86755C21.2323 5.55592 18.4346 4.4001 15.2501 4.4001C12.0656 4.4001 9.26798 5.55592 6.85726 7.86755C4.44655 10.1792 3.12215 12.8978 2.88405 16.0234Z" stroke="black" stroke-width="4" mask="url(#path-1-inside-1_601_424)"/>
</svg>
