<svg width="20" height="26" viewBox="0 0 20 26" fill="none" xmlns="http://www.w3.org/2000/svg">
<path d="M6.24617 11.3923C6.24617 11.9855 6.37821 12.5419 6.6423 13.0615C6.90641 13.5812 7.27437 14.0077 7.74617 14.341C7.71197 14.2727 7.69059 14.2043 7.68203 14.1359C7.6735 14.0675 7.66923 13.9906 7.66923 13.9051C7.67948 13.6214 7.74272 13.3517 7.85897 13.0962C7.97521 12.8406 8.14188 12.6068 8.35897 12.3949L10 10.7692L11.659 12.4026C11.8761 12.6145 12.0385 12.847 12.1462 13.1C12.2539 13.353 12.3128 13.6214 12.3231 13.9051C12.3231 13.9906 12.3188 14.0675 12.3103 14.1359C12.3017 14.2043 12.2803 14.2727 12.2462 14.341C12.7128 14.0077 13.0833 13.5838 13.3577 13.0692C13.6321 12.5547 13.7692 12.0009 13.7692 11.4077C13.7692 10.9 13.6812 10.4218 13.5051 9.97307C13.3291 9.52436 13.065 9.11624 12.7128 8.74873C12.5026 8.87693 12.2782 8.97863 12.0397 9.05383C11.8013 9.12906 11.5573 9.16667 11.3077 9.16667C10.6581 9.16667 10.0769 8.95641 9.5641 8.5359C9.05128 8.11539 8.73589 7.58548 8.61793 6.94617C8.24871 7.2641 7.91453 7.60299 7.6154 7.96283C7.31625 8.32266 7.06625 8.6906 6.8654 9.06667C6.66453 9.44273 6.51111 9.82563 6.40513 10.2154C6.29916 10.6051 6.24617 10.9974 6.24617 11.3923ZM10 12.441L9.17693 13.2385C9.07096 13.3444 8.98848 13.4632 8.9295 13.5949C8.87052 13.7265 8.84103 13.8735 8.84103 14.0359C8.84103 14.3607 8.953 14.6282 9.17693 14.8385C9.40087 15.0487 9.67522 15.1538 10 15.1538C10.3248 15.1538 10.5991 15.0487 10.8231 14.8385C11.047 14.6282 11.159 14.3607 11.159 14.0359C11.159 13.8735 11.1295 13.7265 11.0705 13.5949C11.0115 13.4632 10.929 13.3444 10.8231 13.2385L10 12.441ZM9.7436 4.71793V6.4564C9.7436 6.88547 9.8983 7.24914 10.2077 7.54743C10.5171 7.84572 10.8863 7.99487 11.3154 7.99487C11.5256 7.99487 11.7179 7.95256 11.8923 7.86793C12.0667 7.78333 12.2316 7.65812 12.3872 7.4923L12.6462 7.1846C13.3692 7.62733 13.9338 8.22777 14.3397 8.9859C14.7457 9.74401 14.9487 10.5513 14.9487 11.4077C14.9487 12.7923 14.4701 13.9594 13.5128 14.909C12.5556 15.8585 11.3846 16.3333 10 16.3333C8.61538 16.3333 7.447 15.8573 6.49487 14.9051C5.54273 13.953 5.06667 12.7846 5.06667 11.4C5.06667 10.065 5.49572 8.81197 6.35383 7.64103C7.21197 6.47008 8.34189 5.49571 9.7436 4.71793ZM2.15383 25.3333C1.55726 25.3333 1.04914 25.1235 0.6295 24.7038C0.209833 24.2842 0 23.7761 0 23.1795V4.66667C0 3.37093 0.453844 2.26922 1.36153 1.36153C2.26922 0.453845 3.37093 0 4.66667 0H15.3333C16.6291 0 17.7308 0.453845 18.6385 1.36153C19.5462 2.26922 20 3.37093 20 4.66667V23.1795C20 23.7761 19.7902 24.2842 19.3705 24.7038C18.9509 25.1235 18.4427 25.3333 17.8462 25.3333H2.15383ZM1.33333 20V23.1795C1.33333 23.4188 1.41026 23.6154 1.5641 23.7692C1.71794 23.9231 1.91452 24 2.15383 24H17.8462C18.0855 24 18.2821 23.9231 18.4359 23.7692C18.5897 23.6154 18.6667 23.4188 18.6667 23.1795V20C17.4872 20 16.6761 20.2222 16.2333 20.6667C15.7906 21.1111 15.0462 21.3333 14 21.3333C12.9368 21.3333 12.2218 21.1111 11.8551 20.6667C11.4885 20.2222 10.8701 20 10 20C9.12991 20 8.51153 20.2222 8.14487 20.6667C7.7782 21.1111 7.06324 21.3333 6 21.3333C4.95384 21.3333 4.22607 21.1111 3.81667 20.6667C3.40727 20.2222 2.57949 20 1.33333 20ZM6 20C6.87009 20 7.48847 19.7778 7.85513 19.3333C8.2218 18.8889 8.93676 18.6667 10 18.6667C11.0803 18.6667 11.8162 18.8889 12.2077 19.3333C12.5991 19.7778 13.1966 20 14 20C14.7863 20 15.4009 19.7778 15.8436 19.3333C16.2863 18.8889 17.2274 18.6667 18.6667 18.6667V4.66667C18.6667 3.74531 18.3415 2.95941 17.691 2.30897C17.0406 1.65854 16.2547 1.33333 15.3333 1.33333H4.66667C3.74531 1.33333 2.95941 1.65854 2.30897 2.30897C1.65854 2.95941 1.33333 3.74531 1.33333 4.66667V18.6667C2.75556 18.6667 3.67565 18.8889 4.0936 19.3333C4.51153 19.7778 5.147 20 6 20Z" fill="black"/>
</svg>
