<svg width="30" height="24" viewBox="0 0 30 24" fill="none" xmlns="http://www.w3.org/2000/svg">
<path d="M7.9117 14.7987L6.13347 12.9001C7.45068 11.4937 8.82905 10.4389 10.2686 9.73576C11.7081 9.03258 13.2558 8.68099 14.9117 8.68099C16.5677 8.68099 18.1154 9.03258 19.5549 9.73576C20.9944 10.4389 22.3728 11.4937 23.69 12.9001L21.9118 14.7987C20.7639 13.5731 19.6067 12.6992 18.44 12.1768C17.2733 11.6544 16.0972 11.3933 14.9117 11.3933C13.7263 11.3933 12.5502 11.6544 11.3835 12.1768C10.2168 12.6992 9.05956 13.5731 7.9117 14.7987ZM3.14152 9.70563L1.36328 7.80703C3.11329 5.89839 5.15026 4.36143 7.4742 3.19616C9.79814 2.03088 12.2773 1.44824 14.9117 1.44824C17.5462 1.44824 20.0253 2.03088 22.3493 3.19616C24.6732 4.36143 26.7102 5.89839 28.4602 7.80703L26.682 9.70563C25.026 8.01798 23.2149 6.67189 21.2485 5.66734C19.2821 4.6628 17.1698 4.16052 14.9117 4.16052C12.6537 4.16052 10.5414 4.6628 8.57501 5.66734C6.60861 6.67189 4.79744 8.01798 3.14152 9.70563ZM14.9117 22.2725L19.0892 17.7822C18.5435 17.1996 17.9178 16.7425 17.2122 16.411C16.5065 16.0795 15.7397 15.9137 14.9117 15.9137C14.0838 15.9137 13.317 16.0795 12.6113 16.411C11.9057 16.7425 11.28 17.1996 10.7343 17.7822L14.9117 22.2725Z" fill="white" fill-opacity="0.8" stroke="white" stroke-opacity="0.8" stroke-width="1.25"/>
</svg>
